<svg width="16" height="16" viewBox="0 0 16 16" fill="none" xmlns="http://www.w3.org/2000/svg">
<path d="M12.0006 3.49968C12.0926 3.50005 12.1669 3.57483 12.1666 3.66679C12.1664 3.75875 12.0917 3.83313 11.9997 3.83301C11.9078 3.83289 11.8333 3.75831 11.8333 3.66635C11.8331 3.62195 11.8506 3.57932 11.8821 3.548C11.9135 3.51667 11.9562 3.49927 12.0006 3.49968" stroke="#323232" stroke-linecap="round" stroke-linejoin="round"/>
<path fill-rule="evenodd" clip-rule="evenodd" d="M14.3333 3.66634V3.66634C14.3333 2.37768 13.2886 1.33301 12 1.33301V1.33301C10.7113 1.33301 9.66663 2.37768 9.66663 3.66634V3.66634C9.66663 4.75868 10.8586 5.92555 11.5386 6.50257C11.8072 6.72092 12.1921 6.72092 12.4606 6.50257C13.1413 5.92555 14.3333 4.75868 14.3333 3.66634Z" stroke="#323232" stroke-linecap="round" stroke-linejoin="round"/>
<path d="M3.43835 4.10547L11.8955 12.5626" stroke="#323232" stroke-linecap="round" stroke-linejoin="round"/>
<path d="M14 8C14 11.3137 11.3137 14 8 14C4.68629 14 2 11.3137 2 8C2 4.68629 4.68629 2 8 2" stroke="#323232" stroke-linecap="round" stroke-linejoin="round"/>
<path d="M3.43811 11.8952L7.33329 8" stroke="#323232" stroke-linecap="round" stroke-linejoin="round"/>
</svg>
