<svg width="24" height="24" viewBox="0 0 24 24" fill="none" xmlns="http://www.w3.org/2000/svg">
<path d="M14.0006 10.499L11.5021 13.0006L10.0015 11.4999" stroke="#3152F5" stroke-width="1.5" stroke-linecap="round" stroke-linejoin="round"/>
<path fill-rule="evenodd" clip-rule="evenodd" d="M12.0003 3.99658C7.02826 3.99658 2.99658 7.35666 2.99658 11.4968C3.07174 13.9951 4.44959 16.2717 6.62809 17.497C6.4117 18.085 6.11079 18.6384 5.73486 19.1398C5.52737 19.4427 5.5325 19.8433 5.74769 20.1409C5.96287 20.4384 6.34174 20.5687 6.69442 20.4665C7.89725 20.1163 9.02941 19.558 10.0395 18.817C10.6861 18.9382 11.3425 18.9985 12.0003 18.997C16.9724 18.997 21.0041 15.6369 21.0041 11.4968C21.0041 7.35667 16.9724 3.99658 12.0003 3.99658Z" stroke="#3152F5" stroke-width="1.5" stroke-linecap="round" stroke-linejoin="round"/>
</svg>
