<svg width="16" height="16" viewBox="0 0 16 16" fill="none" xmlns="http://www.w3.org/2000/svg">
<path d="M5.99805 4.66587C5.99805 3.56084 6.89385 2.66504 7.99888 2.66504C9.10391 2.66504 9.99971 3.56084 9.99971 4.66587C10.265 4.40055 10.6249 4.25149 11.0001 4.25149C11.3754 4.25149 11.7352 4.40055 12.0005 4.66587" stroke="#707070" stroke-width="1.5" stroke-linecap="round" stroke-linejoin="round"/>
<path d="M5.99805 8.66783C5.99805 7.5628 6.89385 6.66699 7.99888 6.66699C9.10391 6.66699 9.99971 7.5628 9.99971 8.66783" stroke="#707070" stroke-width="1.5" stroke-linecap="round" stroke-linejoin="round"/>
<path d="M7.99852 6.66698C7.99839 5.65346 7.24052 4.80008 6.23412 4.6802C5.22771 4.56032 4.29059 5.2118 4.05238 6.19693C4.03011 6.28964 3.96728 6.36739 3.88131 6.40862C3.79534 6.44986 3.69537 6.45018 3.60914 6.40952C3.09243 6.19985 2.49955 6.38319 2.19138 6.84793C1.88322 7.31267 1.94508 7.93016 2.33931 8.32453L2.79328 8.7785" stroke="#707070" stroke-width="1.5" stroke-linecap="round" stroke-linejoin="round"/>
<path d="M12.0005 4.66602C12.436 5.09753 12.5413 5.76165 12.2606 6.3067" stroke="#707070" stroke-width="1.5" stroke-linecap="round" stroke-linejoin="round"/>
<path fill-rule="evenodd" clip-rule="evenodd" d="M13.2008 12.4019V12.4019C12.445 13.4095 11.259 14.0025 9.99943 14.0025H5.99776C4.73821 14.0025 3.55216 13.4095 2.79643 12.4019V12.4019C2.27692 11.7092 1.99609 10.8667 1.99609 10.0009V10.0009C1.99609 9.26419 2.5933 8.66699 3.32998 8.66699H12.6672C13.4039 8.66699 14.0011 9.26419 14.0011 10.0009V10.0009C14.0011 10.8667 13.7203 11.7092 13.2008 12.4019V12.4019Z" stroke="#707070" stroke-width="1.5" stroke-linecap="round" stroke-linejoin="round"/>
<path d="M13.3227 8.84649C13.7185 8.3042 13.9323 7.65042 13.9334 6.97904V6.57888C13.9334 6.35787 13.7542 6.17871 13.5332 6.17871H13.133C11.6411 6.18017 10.3484 7.21292 10.0176 8.66766" stroke="#707070" stroke-width="1.5" stroke-linecap="round" stroke-linejoin="round"/>
</svg>
