<svg width="16" height="16" viewBox="0 0 16 16" fill="none" xmlns="http://www.w3.org/2000/svg">
<path d="M7.99933 5.33334C7.90733 5.33334 7.83266 5.40801 7.83333 5.50001C7.83333 5.59201 7.90799 5.66667 7.99999 5.66667C8.09199 5.66667 8.16666 5.59201 8.16666 5.50001C8.16666 5.40801 8.09199 5.33334 7.99933 5.33334" stroke="#3152F5" stroke-width="1.5" stroke-linecap="round" stroke-linejoin="round"/>
<path fill-rule="evenodd" clip-rule="evenodd" d="M8 14V14C4.686 14 2 11.314 2 8V8C2 4.686 4.686 2 8 2V2C11.314 2 14 4.686 14 8V8C14 11.314 11.314 14 8 14Z" stroke="#3152F5" stroke-width="1.5" stroke-linecap="round" stroke-linejoin="round"/>
<path d="M7.99999 8V11.3333" stroke="#3152F5" stroke-width="1.5" stroke-linecap="round" stroke-linejoin="round"/>
</svg>
