<svg width="48" height="48" viewBox="0 0 48 48" fill="none" xmlns="http://www.w3.org/2000/svg">
<path d="M38.242 27.758C40.838 30.354 40.558 34.732 37.406 36.946C35.4 38.354 32.598 38.354 30.592 36.946C27.438 34.734 27.16 30.354 29.756 27.758C32.1 25.414 35.9 25.414 38.242 27.758" stroke="#323232" stroke-width="2.5" stroke-linecap="round" stroke-linejoin="round"/>
<path d="M42.0002 40.0001L38.2402 36.2401" stroke="#323232" stroke-width="2.5" stroke-linecap="round" stroke-linejoin="round"/>
<path d="M14 26H22" stroke="#323232" stroke-width="2.5" stroke-linecap="round" stroke-linejoin="round"/>
<path d="M14 18H30" stroke="#323232" stroke-width="2.5" stroke-linecap="round" stroke-linejoin="round"/>
<path d="M38 20V14C38 10.686 35.314 8 32 8H12C8.686 8 6 10.686 6 14V32C6 35.314 8.686 38 12 38H22" stroke="#323232" stroke-width="2.5" stroke-linecap="round" stroke-linejoin="round"/>
</svg>
