<svg width="16" height="16" viewBox="0 0 16 16" fill="none" xmlns="http://www.w3.org/2000/svg">
<path fill-rule="evenodd" clip-rule="evenodd" d="M11.3333 14H4.66668C3.93001 14 3.33334 13.4033 3.33334 12.6667V7.33333C3.33334 6.59667 3.93001 6 4.66668 6H11.3333C12.07 6 12.6667 6.59667 12.6667 7.33333V12.6667C12.6667 13.4033 12.07 14 11.3333 14Z" stroke="#323232" stroke-width="1.5" stroke-linecap="round" stroke-linejoin="round"/>
<path d="M8.00002 11.3937V9.66699" stroke="#323232" stroke-width="1.5" stroke-linecap="round" stroke-linejoin="round"/>
<path d="M8.35355 8.81344C8.54881 9.0087 8.54881 9.32528 8.35355 9.52055C8.15829 9.71581 7.84171 9.71581 7.64645 9.52055C7.45118 9.32528 7.45118 9.0087 7.64645 8.81344C7.84171 8.61818 8.15829 8.61818 8.35355 8.81344" stroke="#323232" stroke-width="1.5" stroke-linecap="round" stroke-linejoin="round"/>
<path d="M5.33334 6V4.66667V4.66667C5.33334 3.194 6.52734 2 8.00001 2V2C9.47268 2 10.6667 3.194 10.6667 4.66667V4.66667V6" stroke="#323232" stroke-width="1.5" stroke-linecap="round" stroke-linejoin="round"/>
</svg>
