<svg width="16" height="16" viewBox="0 0 16 16" fill="none" xmlns="http://www.w3.org/2000/svg">
<path fill-rule="evenodd" clip-rule="evenodd" d="M2.60001 10.4312L3.53201 10.5739C4.22001 10.6792 4.71134 11.2952 4.66067 11.9892L4.59201 12.9299C4.57201 13.2039 4.72134 13.4619 4.96867 13.5812L5.65801 13.9132C5.90534 14.0325 6.20067 13.9879 6.40267 13.8019L7.09534 13.1619C7.60601 12.6899 8.39401 12.6899 8.90534 13.1619L9.59801 13.8019C9.80001 13.9885 10.0947 14.0325 10.3427 13.9132L11.0333 13.5805C11.28 13.4619 11.4287 13.2045 11.4087 12.9312L11.34 11.9892C11.2893 11.2952 11.7807 10.6792 12.4687 10.5739L13.4007 10.4312C13.672 10.3899 13.8907 10.1865 13.952 9.91852L14.122 9.17318C14.1833 8.90518 14.0747 8.62718 13.848 8.47252L13.07 7.93985C12.496 7.54652 12.3207 6.77852 12.6673 6.17518L13.1373 5.35785C13.274 5.11985 13.2513 4.82185 13.08 4.60718L12.6033 4.00918C12.432 3.79452 12.1467 3.70585 11.884 3.78652L10.9827 4.06252C10.3167 4.26652 9.60667 3.92452 9.35067 3.27718L9.00534 2.40185C8.90401 2.14585 8.65667 1.97785 8.38134 1.97852L7.61734 1.98052C7.34201 1.98118 7.09534 2.15052 6.99534 2.40718L6.65867 3.27252C6.40534 3.92385 5.69201 4.26852 5.02401 4.06318L4.08534 3.77518C3.82201 3.69385 3.53534 3.78318 3.36401 3.99918L2.89067 4.59785C2.71934 4.81452 2.69867 5.11318 2.83801 5.35118L3.31867 6.17052C3.67267 6.77452 3.49934 7.54985 2.92201 7.94518L2.15334 8.47185C1.92667 8.62718 1.81801 8.90518 1.87934 9.17252L2.04934 9.91785C2.11001 10.1865 2.32867 10.3899 2.60001 10.4312V10.4312Z" stroke="#323232" stroke-width="1.5" stroke-linecap="round" stroke-linejoin="round"/>
<path d="M9.27733 6.72236C9.98266 7.42769 9.98266 8.57169 9.27733 9.27703C8.572 9.98236 7.428 9.98236 6.72266 9.27703C6.01733 8.57169 6.01733 7.42769 6.72266 6.72236C7.428 6.01703 8.572 6.01703 9.27733 6.72236" stroke="#323232" stroke-width="1.5" stroke-linecap="round" stroke-linejoin="round"/>
</svg>
